<?xml version="1.0" encoding="UTF-8"?>
<!DOCTYPE svg PUBLIC "-//W3C//DTD SVG 1.1//EN" "http://www.w3.org/Graphics/SVG/1.1/DTD/svg11.dtd">
<!-- Creator: CorelDRAW -->
<svg xmlns="http://www.w3.org/2000/svg" xml:space="preserve" width="6.82666in" height="6.82666in" style="shape-rendering:geometricPrecision; text-rendering:geometricPrecision; image-rendering:optimizeQuality; fill-rule:evenodd; clip-rule:evenodd"
viewBox="0 0 6.82666 6.82666"
 xmlns:xlink="http://www.w3.org/1999/xlink" >
 <defs>
  <style type="text/css">
   <![CDATA[
    .fil1 {fill:none}
    .fil0 {fill:#212121;fill-rule:nonzero}
   ]]>
  </style>
 </defs>
 <g id="Layer_x0020_1">
  <metadata id="CorelCorpID_0Corel-Layer"/>
  <path class="fil0" d="M1.86501 0.95122l3.09665 0c0.0600276,0 0.11435,0.026252 0.1535,0.0685315 0.0371339,0.0400984 0.060189,0.094563 0.060189,0.153701l0 1.91839c0,0.451091 -0.171555,0.86189 -0.447937,1.16033 -0.278406,0.300618 -0.662728,0.487217 -1.08575,0.487217l-0.45665 0c-0.423024,0 -0.807346,-0.186598 -1.08575,-0.487217 -0.276382,-0.298437 -0.447937,-0.709236 -0.447937,-1.16033l0 -1.91839c0,-0.0591378 0.0230551,-0.113602 0.060189,-0.153701 0.0391575,-0.0422795 0.0934803,-0.0685315 0.153504,-0.0685315zm3.09483 0.213339l-3.09302 0c-0.00134646,0.00188583 -0.00216535,0.00495669 -0.00216535,0.0088937l0 1.91839c0,0.396382 0.149531,0.756035 0.390433,1.01616 0.238878,0.257937 0.568075,0.418043 0.929917,0.418043l0.45665 0c0.361843,0 0.691039,-0.160106 0.929917,-0.418043 0.240902,-0.260126 0.390433,-0.61978 0.390433,-1.01616l0 -1.91839c0,-0.00393701 -0.000818898,-0.00700787 -0.00216535,-0.0088937z"/>
  <path class="fil0" d="M5.22881 1.54459c0.209449,0 0.397854,0.100992 0.533114,0.264256 0.130618,0.157661 0.211409,0.374232 0.211409,0.612327 0,0.238094 -0.0807913,0.454669 -0.211409,0.612331 -0.13526,0.163264 -0.323665,0.264256 -0.533114,0.264256l0 -0.213339c0.142819,0 0.273358,-0.071374 0.368949,-0.186752 0.100236,-0.120988 0.162236,-0.289386 0.162236,-0.476496 0,-0.18711 -0.062,-0.355504 -0.162236,-0.476492 -0.0955906,-0.115378 -0.22613,-0.186752 -0.368949,-0.186752l0 -0.213339z"/>
  <path class="fil0" d="M1.59785 1.75793c-0.142819,0 -0.273358,0.071374 -0.368949,0.186752 -0.100236,0.120988 -0.162236,0.289382 -0.162236,0.476492 0,0.18711 0.062,0.355508 0.162236,0.476496 0.0955906,0.115378 0.22613,0.186752 0.368949,0.186752l0 0.213339c-0.209449,0 -0.397854,-0.100992 -0.533114,-0.264256 -0.130618,-0.157661 -0.211409,-0.374236 -0.211409,-0.612331 0,-0.238094 0.0807913,-0.454665 0.211409,-0.612327 0.13526,-0.163264 0.323665,-0.264256 0.533114,-0.264256l0 0.213339z"/>
  <path class="fil0" d="M4.10476 5.6621c0.0611614,0 0.0959685,-0.0200709 0.108508,-0.0510433 0.0101929,-0.0251811 0.0115945,-0.0588386 0.00504331,-0.0976142 -0.00780709,-0.0462087 -0.0266142,-0.0970433 -0.0553465,-0.148543 -0.106551,-0.191 -0.341031,-0.378965 -0.65426,-0.378965l-0.190736 0c-0.313228,0 -0.547709,0.187965 -0.65426,0.378965 -0.0287323,0.0515 -0.0475394,0.102335 -0.0553465,0.148543 -0.00655118,0.0387756 -0.00514961,0.0724331 0.00504331,0.0976142 0.0125394,0.0309724 0.0473465,0.0510433 0.108508,0.0510433l1.38285 0zm0.306012 0.0289567c-0.0453071,0.111894 -0.144921,0.184382 -0.306012,0.184382l-1.38285 0c-0.161091,0 -0.260705,-0.0724882 -0.306012,-0.184382 -0.0253071,-0.0625157 -0.0305669,-0.135531 -0.0175394,-0.212614 0.0117677,-0.0696417 0.0387913,-0.143886 0.0795118,-0.216874 0.137484,-0.246445 0.438835,-0.488972 0.840094,-0.488972l0.190736 0c0.40126,0 0.70261,0.242528 0.840094,0.488972 0.0407205,0.0729882 0.0677441,0.147232 0.0795118,0.216874 0.0130276,0.0770827 0.00776772,0.150098 -0.0175394,0.212614z"/>
 </g>
 <rect class="fil1" width="6.82666" height="6.82666"/>
</svg>
