<svg id="Layer_1" data-name="Layer 1" xmlns="http://www.w3.org/2000/svg" viewBox="0 0 128 128"><title>COMPASS</title><path d="M70.578,25.93a8.822,8.822,0,1,0-13.156,0,45.65,45.65,0,1,0,13.156,0ZM64,14.75a5.322,5.322,0,1,1-5.322,5.322A5.328,5.328,0,0,1,64,14.75Zm0,98.5A42.15,42.15,0,1,1,106.15,71.1,42.2,42.2,0,0,1,64,113.25Z"/><path d="M90.71,44.712a1.146,1.146,0,0,0-.323-.323,37.492,37.492,0,0,0-52.775,0,1.146,1.146,0,0,0-.323.323,37.491,37.491,0,0,0,0,52.776,1.134,1.134,0,0,0,.32.319,37.491,37.491,0,0,0,52.779,0,1.134,1.134,0,0,0,.32-.319,37.491,37.491,0,0,0,0-52.776Zm-1.427,49.2L87.99,92.615a1.75,1.75,0,0,0-2.475,2.475l1.293,1.293a33.934,33.934,0,0,1-21.058,8.741v-1.848a1.75,1.75,0,1,0-3.5,0v1.848a33.934,33.934,0,0,1-21.058-8.741l1.293-1.293a1.75,1.75,0,0,0-2.475-2.475l-1.293,1.293A33.934,33.934,0,0,1,29.976,72.85h1.848a1.75,1.75,0,1,0,0-3.5H29.976a33.933,33.933,0,0,1,8.742-21.058l1.293,1.293a1.75,1.75,0,0,0,2.475-2.475l-1.293-1.293A33.934,33.934,0,0,1,62.25,37.076v1.847a1.75,1.75,0,0,0,3.5,0V37.076a33.934,33.934,0,0,1,21.058,8.741L85.515,47.11a1.75,1.75,0,1,0,2.475,2.475l1.293-1.293A33.934,33.934,0,0,1,98.022,69.35H96.177a1.75,1.75,0,0,0,0,3.5h1.845A33.935,33.935,0,0,1,89.283,93.908Z"/><path d="M69.559,66.3c0-.008-.015-.005-.019-.012a1.741,1.741,0,0,0-.742-.749L52.42,57.166a1.75,1.75,0,0,0-2.355,2.355L58.441,75.9a1.739,1.739,0,0,0,.739.737c.008.007.011.019.022.025L75.58,85.034a1.75,1.75,0,0,0,2.355-2.355ZM55.647,62.747l9.416,4.815-4.6,4.6Zm7.291,11.891,4.6-4.6,4.815,9.416Z"/></svg>